<svg width="36" height="36" viewBox="0 0 36 36" fill="none" xmlns="http://www.w3.org/2000/svg">
<path d="M19.7699 4.54367C20.285 4.1379 21.1222 4.13804 21.6356 4.55601L23.8736 6.37851H27.4507C26.7708 2.77451 22.8612 0 18.1638 0C13.044 0 8.8684 3.28732 8.77393 7.35681C9.93628 7.22321 15.2309 8.11943 19.7699 4.54367Z" fill="#5B7288"/>
<path d="M18.1667 16.8164C23.3335 16.8164 27.5617 13.4648 27.5617 9.31635L27.559 8.48133H23.3203C22.9665 8.48133 22.6276 8.36764 22.3799 8.16598L20.6392 6.74847C15.455 10.1732 9.96885 9.33556 8.77393 9.45955C8.86823 13.529 13.0452 16.8164 18.1667 16.8164Z" fill="#5B7288"/>
<path d="M27.6776 15.1898C26.1578 16.7542 24.0467 17.9349 21.6141 18.5167L2.7002 31.6276H15.7133L27.6776 15.1898Z" fill="#5B7288"/>
<path d="M25.3289 29.8935C25.3289 28.9371 24.3537 28.1592 23.155 28.1592H21.2842L18.7595 31.6278H23.155C24.3537 31.6278 25.3289 30.8499 25.3289 29.8935Z" fill="#5B7288"/>
<path d="M8.26041 14.7626H7.25733C4.8954 14.7626 2.90058 16.1122 2.51407 17.9717C0.205788 29.5792 -0.0905514 29.3629 0.208948 30.5695L17.0731 18.8794C13.3938 18.615 10.2307 17.0353 8.26041 14.7626Z" fill="#5B7288"/>
<path d="M35.9907 34.7287L33.8607 18.2202C33.6768 16.7436 32.4764 15.539 30.8421 15.0275L22.8148 26.0562H23.1551C25.8062 26.0562 27.9631 27.7776 27.9631 29.8933C27.9631 32.0092 25.8062 33.7305 23.1551 33.7305H5.72491L5.6018 34.7184C5.52471 35.337 6.1339 35.8736 6.91158 35.8739L34.6798 35.8878C35.7145 35.7089 36.0627 35.287 35.9907 34.7287Z" fill="#5B7288"/>
</svg>
