<svg width="28" height="22" viewBox="0 0 28 22" fill="none" xmlns="http://www.w3.org/2000/svg">
<path d="M10.1037 14.6667C6.73158 14.6667 0 16.3044 0 19.5556V22H20.2074V19.5556C20.2074 16.3044 13.4758 14.6667 10.1037 14.6667Z" fill="#9D9D9D"/>
<path d="M26.6485 4.69333C26.6612 4.55888 26.6738 4.42444 26.6738 4.27777C26.6738 4.1311 26.6612 3.99666 26.6359 3.86222L27.5705 3.15333C27.6589 3.09222 27.6715 2.97 27.621 2.88444L26.7369 1.40555C26.6864 1.30778 26.5601 1.28333 26.4717 1.30778L25.3856 1.73555C25.1582 1.56444 24.9056 1.43 24.6404 1.32L24.4762 0.183333C24.451 0.0733333 24.3626 0 24.2489 0H22.4808C22.3671 0 22.2787 0.0733333 22.2661 0.183333L22.1019 1.32C21.8366 1.43 21.5841 1.57666 21.3567 1.73555L20.2579 1.30778C20.1569 1.27111 20.0432 1.30778 19.9927 1.40555L19.1086 2.88444C19.0581 2.98222 19.0708 3.09222 19.1592 3.15333L20.0938 3.86222C20.0685 3.99666 20.0559 4.14333 20.0559 4.27777C20.0559 4.41221 20.0685 4.55888 20.0938 4.69333L19.1592 5.40221C19.0708 5.46332 19.0581 5.58555 19.1086 5.6711L19.9927 7.14999C20.0432 7.24777 20.1695 7.27221 20.2579 7.24777L21.3567 6.81999C21.5841 6.9911 21.8366 7.12554 22.1019 7.23554L22.2661 8.37221C22.2787 8.48221 22.3671 8.55554 22.4808 8.55554H24.2489C24.3626 8.55554 24.451 8.48221 24.4636 8.37221L24.6278 7.23554C24.893 7.12554 25.1456 6.97888 25.3729 6.81999L26.4717 7.24777C26.5727 7.28443 26.6864 7.24777 26.7369 7.14999L27.621 5.6711C27.6715 5.57332 27.6589 5.46332 27.5705 5.40221L26.6485 4.69333ZM23.3648 5.80555C22.4934 5.80555 21.7861 5.1211 21.7861 4.27777C21.7861 3.43444 22.4934 2.75 23.3648 2.75C24.2363 2.75 24.9435 3.43444 24.9435 4.27777C24.9435 5.1211 24.2363 5.80555 23.3648 5.80555Z" fill="#9D9D9D"/>
<path d="M23.8952 10.6089L23.2637 9.54556C23.2258 9.47222 23.1374 9.44778 23.0742 9.47222L22.2912 9.77778C22.127 9.65556 21.9502 9.55778 21.7608 9.48445L21.6471 8.67778C21.6218 8.60445 21.5461 8.55556 21.4703 8.55556H20.2073C20.1315 8.55556 20.0684 8.60445 20.0558 8.69L19.9421 9.49667C19.7526 9.57 19.5758 9.68 19.4116 9.79L18.6286 9.48445C18.5528 9.46 18.4771 9.48444 18.4392 9.55778L17.8077 10.6211C17.7698 10.6944 17.7824 10.7678 17.8456 10.8167L18.5149 11.3178C18.5023 11.4156 18.4897 11.5133 18.4897 11.6111C18.4897 11.7089 18.5023 11.8189 18.5149 11.9044L17.8456 12.4056C17.7824 12.4544 17.7698 12.54 17.8077 12.6011L18.4392 13.6644C18.4771 13.7378 18.5655 13.7622 18.6286 13.7378L19.4116 13.4322C19.5758 13.5544 19.7526 13.6522 19.9421 13.7255L20.0558 14.5322C20.0684 14.6178 20.1315 14.6667 20.2073 14.6667H21.4703C21.5461 14.6667 21.6218 14.6178 21.6218 14.5322L21.7355 13.7255C21.9249 13.6522 22.1018 13.5422 22.2659 13.4322L23.049 13.7378C23.1248 13.7622 23.2005 13.7378 23.2384 13.6644L23.8699 12.6011C23.9078 12.5278 23.8952 12.4544 23.832 12.4056L23.1753 11.9044C23.1879 11.8067 23.2005 11.7089 23.2005 11.6111C23.2005 11.5133 23.1879 11.4033 23.1753 11.3178L23.8446 10.8167C23.9078 10.7678 23.9204 10.6822 23.8952 10.6089ZM20.8388 12.6256C20.2578 12.6256 19.7905 12.1611 19.7905 11.6111C19.7905 11.0489 20.2705 10.5967 20.8388 10.5967C21.4071 10.5967 21.887 11.0611 21.887 11.6111C21.887 12.1733 21.4198 12.6256 20.8388 12.6256Z" fill="#9D9D9D"/>
<path d="M4.72334 7.33333H15.4964C15.8374 7.33333 16.1153 7.06444 16.1153 6.73444V6.71C16.1153 6.38 15.8374 6.11111 15.4964 6.11111H15.1554C15.1554 4.30222 14.1324 2.75 12.6295 1.89445V3.05556C12.6295 3.39778 12.3516 3.66667 11.998 3.66667C11.6444 3.66667 11.3665 3.39778 11.3665 3.05556V1.39334C10.9624 1.29556 10.5456 1.22223 10.1036 1.22223C9.66152 1.22223 9.24474 1.29556 8.8406 1.39334V3.05556C8.8406 3.39778 8.56275 3.66667 8.20912 3.66667C7.85549 3.66667 7.57764 3.39778 7.57764 3.05556V1.89445C6.07471 2.75 5.05171 4.30222 5.05171 6.11111H4.72334C4.38234 6.11111 4.10449 6.38 4.10449 6.71V6.74667C4.10449 7.06444 4.38234 7.33333 4.72334 7.33333Z" fill="#9D9D9D"/>
<path d="M10.1038 12.2222C12.4529 12.2222 14.4105 10.6578 14.9788 8.55556H5.22876C5.79709 10.6578 7.75468 12.2222 10.1038 12.2222Z" fill="#9D9D9D"/>
</svg>
