<svg width="22" height="22" viewBox="0 0 22 22" fill="none" xmlns="http://www.w3.org/2000/svg">
<rect width="22" height="22" fill="white"/>
<rect width="22" height="6.84444" fill="#9D9D9D"/>
<rect y="7.3333" width="22" height="14.6667" fill="#9D9D9D"/>
<path d="M5.6288 14.2648C4.98557 14.0799 4.51682 13.8533 4.22255 13.5851C3.93088 13.3142 3.78505 12.9809 3.78505 12.5851C3.78505 12.1372 3.96343 11.7674 4.3202 11.4757C4.67958 11.1814 5.14572 11.0343 5.71864 11.0343C6.10927 11.0343 6.45692 11.1098 6.76161 11.2609C7.0689 11.4119 7.30588 11.6202 7.47255 11.8859C7.64182 12.1515 7.72645 12.4419 7.72645 12.757H6.97255C6.97255 12.4132 6.86317 12.1437 6.64442 11.9484C6.42567 11.7504 6.11708 11.6515 5.71864 11.6515C5.34885 11.6515 5.05979 11.7335 4.85145 11.8976C4.64572 12.059 4.54286 12.2843 4.54286 12.5734C4.54286 12.8051 4.64052 13.0017 4.83583 13.1632C5.03375 13.3221 5.36838 13.4679 5.83974 13.6007C6.31369 13.7335 6.68349 13.8807 6.94911 14.0421C7.21734 14.201 7.41526 14.3872 7.54286 14.6007C7.67307 14.8142 7.73817 15.0656 7.73817 15.3546C7.73817 15.8156 7.55849 16.1853 7.19911 16.464C6.83974 16.74 6.35927 16.8781 5.7577 16.8781C5.36708 16.8781 5.0025 16.8038 4.66395 16.6554C4.32541 16.5044 4.06369 16.2986 3.8788 16.0382C3.69651 15.7778 3.60536 15.4822 3.60536 15.1515H4.35927C4.35927 15.4952 4.48557 15.7674 4.73817 15.9679C4.99338 16.1658 5.33322 16.2648 5.7577 16.2648C6.15354 16.2648 6.45692 16.184 6.66786 16.0226C6.8788 15.8611 6.98427 15.6411 6.98427 15.3624C6.98427 15.0838 6.88661 14.8689 6.6913 14.7179C6.49599 14.5642 6.14182 14.4132 5.6288 14.2648ZM12.9022 16.0538C12.7095 16.3299 12.44 16.5369 12.0936 16.6749C11.7499 16.8103 11.3488 16.8781 10.8905 16.8781C10.427 16.8781 10.0155 16.77 9.65614 16.5538C9.29677 16.3351 9.01812 16.0252 8.8202 15.6241C8.62489 15.2231 8.52463 14.7583 8.51942 14.2296V13.7335C8.51942 12.8767 8.71864 12.2127 9.11708 11.7413C9.51812 11.27 10.0806 11.0343 10.8046 11.0343C11.3983 11.0343 11.8762 11.1866 12.2382 11.4913C12.6002 11.7934 12.8215 12.2231 12.9022 12.7804H12.1522C12.0116 12.0278 11.5637 11.6515 10.8085 11.6515C10.3059 11.6515 9.92437 11.8286 9.66395 12.1827C9.40614 12.5343 9.27593 13.0447 9.27333 13.714V14.1788C9.27333 14.8169 9.41916 15.3247 9.71083 15.7023C10.0025 16.0773 10.397 16.2648 10.8944 16.2648C11.1757 16.2648 11.4218 16.2335 11.6327 16.171C11.8436 16.1085 12.0181 16.0031 12.1561 15.8546V14.5773H10.8397V13.9679H12.9022V16.0538ZM18.3397 14.9952C18.2694 15.5968 18.0468 16.0616 17.6718 16.3898C17.2994 16.7153 16.8033 16.8781 16.1835 16.8781C15.5116 16.8781 14.9725 16.6372 14.5663 16.1554C14.1627 15.6736 13.9608 15.0291 13.9608 14.2218V13.6749C13.9608 13.1463 14.0546 12.6814 14.2421 12.2804C14.4322 11.8794 14.7004 11.5721 15.0468 11.3585C15.3931 11.1424 15.7942 11.0343 16.2499 11.0343C16.8541 11.0343 17.3384 11.2036 17.703 11.5421C18.0676 11.8781 18.2798 12.3442 18.3397 12.9406H17.5858C17.5207 12.4874 17.3788 12.1593 17.16 11.9562C16.9439 11.7531 16.6405 11.6515 16.2499 11.6515C15.7707 11.6515 15.3944 11.8286 15.121 12.1827C14.8502 12.5369 14.7147 13.0408 14.7147 13.6945V14.2452C14.7147 14.8624 14.8436 15.3533 15.1015 15.7179C15.3593 16.0825 15.7199 16.2648 16.1835 16.2648C16.6002 16.2648 16.9192 16.171 17.1405 15.9835C17.3645 15.7934 17.5129 15.464 17.5858 14.9952H18.3397Z" fill="white"/>
<path d="M4.88232 3.90442C4.48031 3.78886 4.18734 3.64726 4.00342 3.47961C3.82113 3.31034 3.72998 3.10201 3.72998 2.85461C3.72998 2.57467 3.84147 2.34355 4.06445 2.16125C4.28906 1.97734 4.5804 1.88538 4.93848 1.88538C5.18262 1.88538 5.3999 1.93258 5.59033 2.02698C5.78239 2.12138 5.9305 2.25159 6.03467 2.4176C6.14046 2.58362 6.19336 2.7651 6.19336 2.96204H5.72217C5.72217 2.74719 5.65381 2.57874 5.51709 2.45667C5.38037 2.33297 5.1875 2.27112 4.93848 2.27112C4.70736 2.27112 4.52669 2.32239 4.39648 2.42493C4.2679 2.52584 4.20361 2.66663 4.20361 2.84729C4.20361 2.99215 4.26465 3.11503 4.38672 3.21594C4.51042 3.31523 4.71956 3.40637 5.01416 3.48938C5.31038 3.57239 5.5415 3.66435 5.70752 3.76526C5.87516 3.86454 5.99886 3.98092 6.07861 4.11438C6.15999 4.24784 6.20068 4.40491 6.20068 4.58557C6.20068 4.87366 6.08838 5.10478 5.86377 5.27893C5.63916 5.45146 5.33887 5.53772 4.96289 5.53772C4.71875 5.53772 4.49089 5.49133 4.2793 5.39856C4.06771 5.30416 3.90413 5.17558 3.78857 5.01282C3.67464 4.85006 3.61768 4.66532 3.61768 4.45862H4.08887C4.08887 4.67346 4.16781 4.84355 4.32568 4.96887C4.48519 5.09257 4.69759 5.15442 4.96289 5.15442C5.21029 5.15442 5.3999 5.10396 5.53174 5.00305C5.66357 4.90214 5.72949 4.76461 5.72949 4.59045C5.72949 4.4163 5.66846 4.28202 5.54639 4.18762C5.42432 4.09159 5.20296 3.99719 4.88232 3.90442ZM7.30664 5.48889H6.83789V1.9342H7.30664V5.48889ZM10.8979 5.48889H10.4268L8.63721 2.74963V5.48889H8.16602V1.9342H8.63721L10.4316 4.68567V1.9342H10.8979V5.48889ZM14.3452 4.36096C14.3013 4.73694 14.1621 5.02747 13.9277 5.23254C13.695 5.43599 13.3849 5.53772 12.9976 5.53772C12.5776 5.53772 12.2407 5.38717 11.9868 5.08606C11.7345 4.78495 11.6084 4.38212 11.6084 3.87756V3.53577C11.6084 3.20536 11.667 2.91484 11.7842 2.66418C11.903 2.41353 12.0706 2.22148 12.2871 2.08801C12.5036 1.95292 12.7542 1.88538 13.0391 1.88538C13.4167 1.88538 13.7194 1.99117 13.9473 2.20276C14.1751 2.41272 14.3078 2.70406 14.3452 3.07678H13.874C13.8333 2.79358 13.7446 2.5885 13.6079 2.46155C13.4728 2.33459 13.2832 2.27112 13.0391 2.27112C12.7396 2.27112 12.5044 2.3818 12.3335 2.60315C12.1642 2.8245 12.0796 3.13944 12.0796 3.54797V3.89221C12.0796 4.27795 12.1602 4.58476 12.3213 4.81262C12.4824 5.04049 12.7078 5.15442 12.9976 5.15442C13.258 5.15442 13.4574 5.09583 13.5957 4.97864C13.7357 4.85982 13.8285 4.65393 13.874 4.36096H14.3452ZM17.7217 3.82629C17.7217 4.1746 17.6631 4.47896 17.5459 4.73938C17.4287 4.99817 17.2627 5.19592 17.0479 5.33264C16.833 5.46936 16.5824 5.53772 16.2959 5.53772C16.016 5.53772 15.7677 5.46936 15.5513 5.33264C15.3348 5.1943 15.1663 4.99817 15.0459 4.74426C14.9271 4.48873 14.866 4.19332 14.8628 3.85803V3.60168C14.8628 3.25989 14.9222 2.95797 15.041 2.69592C15.1598 2.43388 15.3275 2.23368 15.5439 2.09534C15.762 1.95536 16.0111 1.88538 16.291 1.88538C16.5758 1.88538 16.8265 1.95455 17.043 2.0929C17.2611 2.22961 17.4287 2.429 17.5459 2.69104C17.6631 2.95146 17.7217 3.255 17.7217 3.60168V3.82629ZM17.2554 3.5968C17.2554 3.17525 17.1707 2.85217 17.0015 2.62756C16.8322 2.40133 16.5954 2.28821 16.291 2.28821C15.9948 2.28821 15.7612 2.40133 15.5903 2.62756C15.4211 2.85217 15.334 3.16467 15.3291 3.56506V3.82629C15.3291 4.23482 15.4146 4.55627 15.5854 4.79065C15.758 5.0234 15.9948 5.13977 16.2959 5.13977C16.5986 5.13977 16.833 5.02991 16.999 4.81018C17.165 4.58883 17.2505 4.27226 17.2554 3.86047V3.5968Z" fill="white"/>
</svg>
