<svg width="23" height="23" viewBox="0 0 23 23" fill="none" xmlns="http://www.w3.org/2000/svg">
<path d="M12.1389 5.11111H10.2222V12.7778L16.2278 16.4833L17.25 14.95L12.1389 11.8833V5.11111ZM11.5 0C5.11111 0 0 5.11111 0 11.5C0 17.8889 5.11111 23 11.5 23C17.8889 23 23 17.8889 23 11.5C23 5.11111 17.8889 0 11.5 0ZM11.5 20.4444C6.51667 20.4444 2.55556 16.4833 2.55556 11.5C2.55556 6.51667 6.51667 2.55556 11.5 2.55556C16.4833 2.55556 20.4444 6.51667 20.4444 11.5C20.4444 16.4833 16.4833 20.4444 11.5 20.4444Z" fill="#1B344C"/>
</svg>
